<svg width="52" height="52" viewBox="0 0 52 52" fill="none" xmlns="http://www.w3.org/2000/svg">
<rect width="52" height="52" rx="26" fill="white"/>
<path d="M34.9091 19.2V16.8H32.3636V14.4H34.9091V12H37.4545V14.4H40V16.8H37.4545V19.2H34.9091ZM24.7273 31.8C26.3182 31.8 27.6707 31.2752 28.7847 30.2256C29.8988 29.176 30.4554 27.9008 30.4545 26.4C30.4537 24.8992 29.8971 23.6244 28.7847 22.5756C27.6724 21.5268 26.3199 21.0016 24.7273 21C23.1347 20.9984 21.7826 21.5236 20.6711 22.5756C19.5596 23.6276 19.0025 24.9024 19 26.4C18.9975 27.8976 19.5545 29.1728 20.6711 30.2256C21.7877 31.2784 23.1398 31.8032 24.7273 31.8ZM24.7273 29.4C23.8364 29.4 23.0833 29.11 22.4682 28.53C21.853 27.95 21.5455 27.24 21.5455 26.4C21.5455 25.56 21.853 24.85 22.4682 24.27C23.0833 23.69 23.8364 23.4 24.7273 23.4C25.6182 23.4 26.3712 23.69 26.9864 24.27C27.6015 24.85 27.9091 25.56 27.9091 26.4C27.9091 27.24 27.6015 27.95 26.9864 28.53C26.3712 29.11 25.6182 29.4 24.7273 29.4ZM14.5455 36C13.8455 36 13.2464 35.7652 12.7484 35.2956C12.2503 34.826 12.0008 34.2608 12 33.6V19.2C12 18.54 12.2495 17.9752 12.7484 17.5056C13.2473 17.036 13.8463 16.8008 14.5455 16.8H18.5545L20.9091 14.4H29.8182V19.2H32.3636V21.6H37.4545V33.6C37.4545 34.26 37.2055 34.8252 36.7075 35.2956C36.2094 35.766 35.6099 36.0008 34.9091 36H14.5455Z" fill="#063643"/>
</svg>
