<svg width="22" height="23" viewBox="0 0 22 23" fill="none" xmlns="http://www.w3.org/2000/svg">
<path fill-rule="evenodd" clip-rule="evenodd" d="M21.3125 19.8571C21.3125 21.4927 19.9925 22.8127 18.3569 22.8127H3.64306C2.0075 22.8127 0.6875 21.4927 0.6875 19.8571V5.14325C0.6875 3.50768 2.0075 2.18768 3.64306 2.18768H6.875V1.16675C6.87666 0.924089 6.96218 0.689471 7.11704 0.502652C7.27191 0.315834 7.48661 0.188306 7.72475 0.141683L7.90625 0.125183C8.4755 0.125183 8.9375 0.566558 8.9375 1.16675V2.18768H13.0625V1.16675C13.0642 0.924089 13.1497 0.689471 13.3045 0.502652C13.4594 0.315834 13.6741 0.188306 13.9122 0.141683L14.0938 0.125183C14.663 0.125183 15.125 0.566558 15.125 1.16675V2.18768H18.3569C19.9925 2.18768 21.3125 3.50768 21.3125 5.14325V19.8571ZM2.75 8.37518V19.3683C2.75 20.1314 3.36875 20.7502 4.13188 20.7502H17.8681C18.6312 20.7502 19.25 20.1314 19.25 19.3683V8.37518H2.75ZM5.84375 16.6252C6.34906 16.6252 6.77187 17.0026 6.8585 17.4749L6.875 17.6564C6.875 18.1617 6.49756 18.5846 6.02525 18.6712L5.84375 18.6877C5.57108 18.685 5.31033 18.5755 5.11752 18.3827C4.9247 18.1898 4.81519 17.9291 4.8125 17.6564C4.8125 17.1511 5.18994 16.7283 5.66225 16.6417L5.84375 16.6252ZM11 16.6252C11.5053 16.6252 11.9281 17.0026 12.0147 17.4749L12.0312 17.6564C12.0312 18.1617 11.6538 18.5846 11.1815 18.6712L11 18.6877C10.7273 18.685 10.4666 18.5755 10.2738 18.3827C10.0809 18.1898 9.97144 17.9291 9.96875 17.6564C9.96875 17.1511 10.3462 16.7283 10.8185 16.6417L11 16.6252ZM16.1562 16.6252C16.6616 16.6252 17.0844 17.0026 17.171 17.4749L17.1875 17.6564C17.1875 18.1617 16.8101 18.5846 16.3378 18.6712L16.1562 18.6877C15.8836 18.685 15.6228 18.5755 15.43 18.3827C15.2372 18.1898 15.1277 17.9291 15.125 17.6564C15.125 17.1511 15.5024 16.7283 15.9747 16.6417L16.1562 16.6252ZM5.84375 13.5314C6.34906 13.5314 6.77187 13.9089 6.8585 14.3812L6.875 14.5627C6.875 15.068 6.49756 15.4908 6.02525 15.5774L5.84375 15.5939C5.57108 15.5912 5.31033 15.4817 5.11752 15.2889C4.9247 15.0961 4.81519 14.8354 4.8125 14.5627C4.8125 14.0574 5.18994 13.6346 5.66225 13.5479L5.84375 13.5314ZM11 13.5314C11.5053 13.5314 11.9281 13.9089 12.0147 14.3812L12.0312 14.5627C12.0312 15.068 11.6538 15.4908 11.1815 15.5774L11 15.5939C10.7273 15.5912 10.4666 15.4817 10.2738 15.2889C10.0809 15.0961 9.97144 14.8354 9.96875 14.5627C9.96875 14.0574 10.3462 13.6346 10.8185 13.5479L11 13.5314ZM16.1562 13.5314C16.6616 13.5314 17.0844 13.9089 17.171 14.3812L17.1875 14.5627C17.1875 15.068 16.8101 15.4908 16.3378 15.5774L16.1562 15.5939C15.8836 15.5912 15.6228 15.4817 15.43 15.2889C15.2372 15.0961 15.1277 14.8354 15.125 14.5627C15.125 14.0574 15.5024 13.6346 15.9747 13.5479L16.1562 13.5314ZM5.84375 10.4377C6.34906 10.4377 6.77187 10.8151 6.8585 11.2874L6.875 11.4689C6.875 11.9742 6.49756 12.3971 6.02525 12.4837L5.84375 12.5002C5.57108 12.4975 5.31033 12.388 5.11752 12.1952C4.9247 12.0023 4.81519 11.7416 4.8125 11.4689C4.8125 10.9636 5.18994 10.5408 5.66225 10.4542L5.84375 10.4377ZM11 10.4377C11.5053 10.4377 11.9281 10.8151 12.0147 11.2874L12.0312 11.4689C12.0312 11.9742 11.6538 12.3971 11.1815 12.4837L11 12.5002C10.7273 12.4975 10.4666 12.388 10.2738 12.1952C10.0809 12.0023 9.97144 11.7416 9.96875 11.4689C9.96875 10.9636 10.3462 10.5408 10.8185 10.4542L11 10.4377ZM16.1562 10.4377C16.6616 10.4377 17.0844 10.8151 17.171 11.2874L17.1875 11.4689C17.1875 11.9742 16.8101 12.3971 16.3378 12.4837L16.1562 12.5002C15.8836 12.4975 15.6228 12.388 15.43 12.1952C15.2372 12.0023 15.1277 11.7416 15.125 11.4689C15.125 10.9636 15.5024 10.5408 15.9747 10.4542L16.1562 10.4377ZM2.75 6.31268H19.25V5.63206C19.25 4.86893 18.6312 4.25018 17.8681 4.25018H4.13188C3.36875 4.25018 2.75 4.86893 2.75 5.63206V6.31268Z" fill="#85A6AE"/>
</svg>
