<svg width="24" height="25" viewBox="0 0 24 25" fill="none" xmlns="http://www.w3.org/2000/svg">
<path d="M11.75 2.75049C8.02344 2.75049 5 5.62814 5 9.17236C5 13.2505 9.5 19.7131 11.1523 21.9453C11.2209 22.0396 11.3108 22.1162 11.4147 22.1691C11.5186 22.222 11.6335 22.2495 11.75 22.2495C11.8665 22.2495 11.9814 22.222 12.0853 22.1691C12.1892 22.1162 12.2791 22.0396 12.3477 21.9453C14 19.7141 18.5 13.2538 18.5 9.17236C18.5 5.62814 15.4766 2.75049 11.75 2.75049Z" stroke="#85A6AE" stroke-linecap="round" stroke-linejoin="round"/>
<path d="M11.75 11.7657C12.9668 11.7657 13.9531 10.7794 13.9531 9.56265C13.9531 8.34595 12.9668 7.35962 11.75 7.35962C10.5332 7.35962 9.54688 8.34595 9.54688 9.56265C9.54688 10.7794 10.5332 11.7657 11.75 11.7657Z" stroke="#85A6AE" stroke-linecap="round" stroke-linejoin="round"/>
</svg>
