<svg width="25" height="27" viewBox="0 0 25 27" fill="none" xmlns="http://www.w3.org/2000/svg">
<path d="M17.9774 25.0253L19.9884 23.0494L16.7258 19.8841L14.6892 21.8352C14.2205 22.2899 13.9861 22.8216 13.9861 23.4302C13.9861 24.0388 14.2205 24.5705 14.6892 25.0253C15.1579 25.48 15.7059 25.7078 16.3333 25.7087C16.9606 25.7095 17.5086 25.4817 17.9774 25.0253ZM20.9147 22.1521L22.9513 20.1997C23.42 19.7449 23.6503 19.2132 23.6423 18.6046C23.6342 17.996 23.3954 17.4643 22.9257 17.0096C22.457 16.5713 21.913 16.3483 21.2938 16.3405C20.6754 16.3318 20.1318 16.5548 19.6631 17.0096L17.652 18.9868L20.9147 22.1521ZM18.9117 25.9565C18.1857 26.6607 17.3218 27.0085 16.3198 26.9998C15.3179 26.9911 14.4544 26.6434 13.7294 25.9565C13.0214 25.2522 12.6629 24.4145 12.6539 23.4432C12.645 22.472 13.0034 21.6343 13.7294 20.93L18.7302 16.0784C19.4382 15.3915 20.3017 15.048 21.3206 15.048C22.3387 15.048 23.2022 15.3915 23.9111 16.0784C24.637 16.7826 25 17.6208 25 18.5929C25 19.565 24.637 20.4027 23.9111 21.1061L18.9117 25.9565ZM2.17105 23.4759C1.57059 23.4759 1.05841 23.2707 0.634511 22.8603C0.211504 22.4499 0 21.953 0 21.3695V4.71474C0 4.13219 0.211504 3.63528 0.634511 3.22402C1.05752 2.81363 1.5697 2.60843 2.17105 2.60843H8.48927C8.36739 1.94328 8.53184 1.34204 8.98263 0.804702C9.43342 0.267366 10.024 -0.000867369 10.7544 2.10697e-06C11.5028 2.10697e-06 12.1023 0.268236 12.5531 0.804702C13.0039 1.34117 13.1594 1.94241 13.0196 2.60843H19.3378C19.9383 2.60843 20.4504 2.81363 20.8743 3.22402C21.2973 3.63441 21.5088 4.13132 21.5088 4.71474V11.4745C21.2848 11.4493 21.0607 11.4449 20.8367 11.4614C20.6126 11.478 20.3886 11.5023 20.1645 11.5345V4.71474C20.1645 4.48085 20.087 4.28869 19.932 4.13827C19.7769 3.98785 19.5789 3.91264 19.3378 3.91264H2.17105C1.92997 3.91264 1.73191 3.98785 1.57687 4.13827C1.42182 4.28869 1.3443 4.48085 1.3443 4.71474V21.3695C1.3443 21.6034 1.42182 21.7956 1.57687 21.946C1.73191 22.0964 1.92997 22.1716 2.17105 22.1716H9.07136C9.02117 22.389 8.98756 22.6064 8.97053 22.8237C8.95351 23.0411 8.95799 23.2585 8.98397 23.4759H2.17105ZM10.7544 3.18489C11.0457 3.18489 11.2868 3.09273 11.4777 2.9084C11.6685 2.72407 11.7635 2.49018 11.7626 2.20673C11.7618 1.92328 11.6663 1.68983 11.4763 1.50637C11.2863 1.32291 11.0457 1.23031 10.7544 1.22857C10.4632 1.22683 10.2225 1.31943 10.0325 1.50637C9.84254 1.69331 9.74709 1.92676 9.7462 2.20673C9.7453 2.4867 9.84074 2.72059 10.0325 2.9084C10.2243 3.09621 10.4649 3.18837 10.7544 3.18489ZM4.70506 8.77867V7.47445H16.8038V8.77867H4.70506ZM4.70506 13.6942V12.39H16.8038V12.9222C16.6765 13.0134 16.5591 13.1047 16.4516 13.196C16.344 13.2873 16.2262 13.3947 16.098 13.5182L15.9165 13.6942H4.70506ZM4.70506 18.6111V17.3069H12.1942L11.8137 17.6747C11.6524 17.8312 11.4947 17.9873 11.3405 18.1429C11.1864 18.2986 11.0358 18.4542 10.8889 18.6098L4.70506 18.6111Z" fill="#02232C"/>
</svg>
