<svg width="40" height="40" viewBox="0 0 40 40" fill="none" xmlns="http://www.w3.org/2000/svg">
<path d="M33.125 11.875V11.25C33.1234 9.8957 32.7218 8.57205 31.9706 7.44515C31.2195 6.31826 30.1522 5.43831 28.9028 4.91574C27.6534 4.39318 26.2774 4.25126 24.9476 4.50782C23.6179 4.76437 22.3935 5.40795 21.4281 6.35781C21.371 6.41537 21.3259 6.48366 21.2953 6.55875C21.2647 6.63384 21.2493 6.71424 21.25 6.79531V20.6578C21.2503 20.7705 21.2811 20.881 21.339 20.9776C21.397 21.0743 21.48 21.1534 21.5793 21.2068C21.6785 21.2601 21.7904 21.2856 21.903 21.2805C22.0155 21.2755 22.1246 21.2401 22.2188 21.1781C23.4073 20.416 24.7881 20.0074 26.2 20C26.5268 19.9939 26.8436 20.1133 27.0851 20.3336C27.3266 20.5539 27.4745 20.8584 27.4984 21.1844C27.5074 21.354 27.4816 21.5236 27.4228 21.6829C27.364 21.8422 27.2733 21.9879 27.1564 22.111C27.0394 22.2341 26.8986 22.3321 26.7425 22.399C26.5864 22.4659 26.4183 22.5002 26.2484 22.5C24.9224 22.5 23.6506 23.0268 22.7129 23.9645C21.7752 24.9021 21.2484 26.1739 21.2484 27.5V32.7938C21.2483 32.8872 21.2692 32.9796 21.3095 33.064C21.3497 33.1483 21.4085 33.2226 21.4813 33.2812C22.3683 34.0153 23.4126 34.535 24.5331 34.7998C25.6537 35.0645 26.8202 35.0674 27.9419 34.808C29.0637 34.5486 30.1106 34.034 31.0011 33.3041C31.8916 32.5743 32.6019 31.649 33.0766 30.6C33.1244 30.4945 33.1419 30.3778 33.1272 30.2629C33.1126 30.1481 33.0663 30.0395 32.9935 29.9494C32.9207 29.8593 32.8244 29.7912 32.7152 29.7527C32.606 29.7142 32.4882 29.7067 32.375 29.7313C31.5959 29.9098 30.7993 30 30 30H28.7922C28.4697 30.004 28.1576 29.8859 27.9186 29.6694C27.6795 29.453 27.5311 29.1541 27.5031 28.8328C27.4918 28.6618 27.5157 28.4903 27.5734 28.329C27.6311 28.1676 27.7214 28.0199 27.8386 27.8949C27.9559 27.7699 28.0975 27.6703 28.2548 27.6024C28.4122 27.5345 28.5818 27.4996 28.7531 27.5H30.0031C31.3091 27.502 32.596 27.1867 33.7531 26.5812C35.1235 25.8676 36.2619 24.7779 37.035 23.4402C37.808 22.1024 38.1836 20.5719 38.1176 19.0283C38.0517 17.4846 37.547 15.9918 36.6627 14.7248C35.7784 13.4578 34.5512 12.4692 33.125 11.875ZM31.25 17.5H30.625C29.1332 17.5 27.7024 16.9074 26.6475 15.8525C25.5926 14.7976 25 13.3668 25 11.875V11.25C25 10.9185 25.1317 10.6005 25.3661 10.3661C25.6005 10.1317 25.9185 10 26.25 10C26.5815 10 26.8995 10.1317 27.1339 10.3661C27.3683 10.6005 27.5 10.9185 27.5 11.25V11.875C27.5 12.2854 27.5808 12.6917 27.7379 13.0709C27.8949 13.45 28.1251 13.7945 28.4153 14.0847C29.0013 14.6708 29.7962 15 30.625 15H31.25C31.5815 15 31.8995 15.1317 32.1339 15.3661C32.3683 15.6005 32.5 15.9185 32.5 16.25C32.5 16.5815 32.3683 16.8995 32.1339 17.1339C31.8995 17.3683 31.5815 17.5 31.25 17.5ZM13.75 4.375C11.9273 4.37707 10.1798 5.10206 8.89093 6.39092C7.60206 7.67979 6.87707 9.42727 6.875 11.25V11.875C5.44895 12.4696 4.22199 13.4584 3.338 14.7256C2.45401 15.9927 1.94964 17.4857 1.88404 19.0293C1.81844 20.5729 2.19432 22.1033 2.96761 23.4409C3.7409 24.7785 4.87954 25.8678 6.25 26.5812C7.40714 27.1867 8.69404 27.502 10 27.5H11.2078C11.5308 27.4952 11.8437 27.613 12.0834 27.8295C12.3232 28.046 12.472 28.3453 12.5 28.6672C12.5114 28.8382 12.4874 29.0097 12.4297 29.171C12.372 29.3324 12.2817 29.4801 12.1645 29.6051C12.0473 29.7301 11.9056 29.8297 11.7483 29.8976C11.591 29.9655 11.4214 30.0004 11.25 30H10C9.20013 30.0003 8.40281 29.9096 7.62344 29.7297C7.51033 29.705 7.3926 29.7122 7.28336 29.7506C7.17412 29.7889 7.07767 29.8568 7.00476 29.9467C6.93185 30.0366 6.88535 30.145 6.87044 30.2598C6.85553 30.3746 6.8728 30.4913 6.92031 30.5969C7.3949 31.6461 8.10506 32.5718 8.9956 33.3019C9.88613 34.0321 10.9331 34.547 12.055 34.8067C13.1769 35.0664 14.3436 35.0638 15.4644 34.7993C16.5852 34.5347 17.6298 34.0152 18.5172 33.2812C18.59 33.2226 18.6487 33.1483 18.689 33.064C18.7293 32.9796 18.7501 32.8872 18.75 32.7938V27.5C18.75 26.1739 18.2232 24.9021 17.2855 23.9645C16.3479 23.0268 15.0761 22.5 13.75 22.5C13.5802 22.5002 13.4121 22.4659 13.256 22.399C13.0999 22.3321 12.9591 22.2341 12.8421 22.111C12.7251 21.9879 12.6344 21.8422 12.5756 21.6829C12.5168 21.5236 12.4911 21.354 12.5 21.1844C12.5239 20.8581 12.6721 20.5534 12.9139 20.3331C13.1558 20.1127 13.4729 19.9935 13.8 20C15.2119 20.0074 16.5927 20.416 17.7813 21.1781C17.8754 21.2401 17.9845 21.2755 18.097 21.2805C18.2096 21.2856 18.3215 21.2601 18.4207 21.2068C18.52 21.1534 18.603 21.0743 18.661 20.9776C18.7189 20.881 18.7497 20.7705 18.75 20.6578V6.79531C18.7506 6.63125 18.6866 6.47355 18.5719 6.35625C17.2884 5.08629 15.5556 4.37428 13.75 4.375ZM15 11.875C15 13.3668 14.4074 14.7976 13.3525 15.8525C12.2976 16.9074 10.8668 17.5 9.375 17.5H8.75C8.41848 17.5 8.10054 17.3683 7.86612 17.1339C7.6317 16.8995 7.5 16.5815 7.5 16.25C7.5 15.9185 7.6317 15.6005 7.86612 15.3661C8.10054 15.1317 8.41848 15 8.75 15H9.375C9.78538 15 10.1917 14.9192 10.5709 14.7621C10.95 14.6051 11.2945 14.3749 11.5847 14.0847C11.8749 13.7945 12.1051 13.45 12.2621 13.0709C12.4192 12.6917 12.5 12.2854 12.5 11.875V11.25C12.5 10.9185 12.6317 10.6005 12.8661 10.3661C13.1005 10.1317 13.4185 10 13.75 10C14.0815 10 14.3995 10.1317 14.6339 10.3661C14.8683 10.6005 15 10.9185 15 11.25V11.875Z" fill="#2F80ED"/>
</svg>
