<svg width="40" height="41" viewBox="0 0 40 41" fill="none" xmlns="http://www.w3.org/2000/svg">
<path d="M32.5 5.5H28.75V4.25C28.75 3.91848 28.6183 3.60054 28.3839 3.36612C28.1495 3.1317 27.8315 3 27.5 3C27.1685 3 26.8505 3.1317 26.6161 3.36612C26.3817 3.60054 26.25 3.91848 26.25 4.25V5.5H13.75V4.25C13.75 3.91848 13.6183 3.60054 13.3839 3.36612C13.1495 3.1317 12.8315 3 12.5 3C12.1685 3 11.8505 3.1317 11.6161 3.36612C11.3817 3.60054 11.25 3.91848 11.25 4.25V5.5H7.5C6.83696 5.5 6.20107 5.76339 5.73223 6.23223C5.26339 6.70107 5 7.33696 5 8V33C5 33.663 5.26339 34.2989 5.73223 34.7678C6.20107 35.2366 6.83696 35.5 7.5 35.5H32.5C33.163 35.5 33.7989 35.2366 34.2678 34.7678C34.7366 34.2989 35 33.663 35 33V8C35 7.33696 34.7366 6.70107 34.2678 6.23223C33.7989 5.76339 33.163 5.5 32.5 5.5ZM11.25 10.5V9.25C11.25 8.91848 11.3817 8.60054 11.6161 8.36612C11.8505 8.1317 12.1685 8 12.5 8C12.8315 8 13.1495 8.1317 13.3839 8.36612C13.6183 8.60054 13.75 8.91848 13.75 9.25V10.5C13.75 10.8315 13.6183 11.1495 13.3839 11.3839C13.1495 11.6183 12.8315 11.75 12.5 11.75C12.1685 11.75 11.8505 11.6183 11.6161 11.3839C11.3817 11.1495 11.25 10.8315 11.25 10.5ZM24.15 26.6047C22.9528 27.5964 21.6557 28.461 20.2797 29.1844C20.1929 29.2278 20.0971 29.2504 20 29.2504C19.9029 29.2504 19.8071 29.2278 19.7203 29.1844C18.3443 28.461 17.0472 27.5964 15.85 26.6047C13.2125 24.4063 11.875 22.1422 11.875 19.875C11.8754 18.9186 12.1892 17.9887 12.7683 17.2276C13.3475 16.4666 14.16 15.9162 15.0816 15.6608C16.0033 15.4054 16.9832 15.459 17.8715 15.8135C18.7597 16.1679 19.5074 16.8037 20 17.6234C20.4926 16.8037 21.2403 16.1679 22.1285 15.8135C23.0168 15.459 23.9967 15.4054 24.9183 15.6608C25.84 15.9162 26.6525 16.4666 27.2317 17.2276C27.8108 17.9887 28.1246 18.9186 28.125 19.875C28.125 22.1422 26.7875 24.4063 24.15 26.6047ZM28.75 10.5C28.75 10.8315 28.6183 11.1495 28.3839 11.3839C28.1495 11.6183 27.8315 11.75 27.5 11.75C27.1685 11.75 26.8505 11.6183 26.6161 11.3839C26.3817 11.1495 26.25 10.8315 26.25 10.5V9.25C26.25 8.91848 26.3817 8.60054 26.6161 8.36612C26.8505 8.1317 27.1685 8 27.5 8C27.8315 8 28.1495 8.1317 28.3839 8.36612C28.6183 8.60054 28.75 8.91848 28.75 9.25V10.5Z" fill="#2F80ED"/>
</svg>
