<svg width="30" height="32" viewBox="0 0 30 32" fill="none" xmlns="http://www.w3.org/2000/svg">
<path d="M27.5 0.25H2.5C1.83696 0.25 1.20107 0.513392 0.732233 0.982233C0.263392 1.45107 0 2.08696 0 2.75V11.5C0 19.7375 3.9875 24.7297 7.33281 27.4672C10.9359 30.4141 14.5203 31.4141 14.6766 31.4562C14.8914 31.5147 15.118 31.5147 15.3328 31.4562C15.4891 31.4141 19.0688 30.4141 22.6766 27.4672C26.0125 24.7297 30 19.7375 30 11.5V2.75C30 2.08696 29.7366 1.45107 29.2678 0.982233C28.7989 0.513392 28.163 0.25 27.5 0.25ZM22.1375 11.1344L13.3875 19.8844C13.2714 20.0006 13.1335 20.0928 12.9818 20.1557C12.8301 20.2186 12.6674 20.251 12.5031 20.251C12.3389 20.251 12.1762 20.2186 12.0244 20.1557C11.8727 20.0928 11.7348 20.0006 11.6187 19.8844L7.86875 16.1344C7.6342 15.8998 7.50243 15.5817 7.50243 15.25C7.50243 14.9183 7.6342 14.6002 7.86875 14.3656C8.1033 14.1311 8.42142 13.9993 8.75312 13.9993C9.08483 13.9993 9.40295 14.1311 9.6375 14.3656L12.5 17.2328L20.3656 9.36562C20.4818 9.24949 20.6196 9.15736 20.7714 9.09451C20.9231 9.03165 21.0858 8.9993 21.25 8.9993C21.4142 8.9993 21.5769 9.03165 21.7286 9.09451C21.8804 9.15736 22.0182 9.24949 22.1344 9.36562C22.2505 9.48176 22.3426 9.61964 22.4055 9.77138C22.4683 9.92312 22.5007 10.0858 22.5007 10.25C22.5007 10.4142 22.4683 10.5769 22.4055 10.7286C22.3426 10.8804 22.2505 11.0182 22.1344 11.1344H22.1375Z" fill="#2F80ED"/>
</svg>
