<svg width="40" height="40" viewBox="0 0 40 40" fill="none" xmlns="http://www.w3.org/2000/svg">
<path d="M20 3.75C16.7861 3.75 13.6443 4.70305 10.972 6.48862C8.29969 8.27419 6.21689 10.8121 4.98696 13.7814C3.75704 16.7507 3.43524 20.018 4.06225 23.1702C4.68926 26.3224 6.23692 29.2179 8.50952 31.4905C10.7821 33.7631 13.6776 35.3107 16.8298 35.9378C19.982 36.5648 23.2493 36.243 26.2186 35.013C29.1879 33.7831 31.7258 31.7003 33.5114 29.028C35.297 26.3557 36.25 23.2139 36.25 20C36.2455 15.6916 34.5319 11.561 31.4855 8.51454C28.439 5.46806 24.3084 3.75455 20 3.75ZM23.125 23.75C23.1957 23.7498 23.2658 23.7382 23.3328 23.7156C23.6436 23.6116 23.9828 23.6339 24.2774 23.7775C24.572 23.9212 24.7983 24.1748 24.9077 24.4838C25.0171 24.7927 25.0008 25.1323 24.8623 25.4293C24.7238 25.7263 24.4742 25.9571 24.1672 26.0719C23.6958 26.2386 23.1912 26.2898 22.6959 26.2212C22.2006 26.1525 21.729 25.966 21.3207 25.6773C20.9124 25.3885 20.5794 25.0061 20.3496 24.5619C20.1198 24.1178 19.9999 23.6251 20 23.125C20 21.7422 20.7453 20.7453 21.4063 19.8641C21.9953 19.0828 22.5 18.3984 22.5 17.5C22.5 16.837 22.2366 16.2011 21.7678 15.7322C21.2989 15.2634 20.663 15 20 15C19.337 15 18.7011 15.2634 18.2322 15.7322C17.7634 16.2011 17.5 16.837 17.5 17.5C17.5 17.8315 17.3683 18.1495 17.1339 18.3839C16.8995 18.6183 16.5815 18.75 16.25 18.75C15.9185 18.75 15.6005 18.6183 15.3661 18.3839C15.1317 18.1495 15 17.8315 15 17.5C15 16.1739 15.5268 14.9021 16.4645 13.9645C17.4022 13.0268 18.6739 12.5 20 12.5C21.3261 12.5 22.5979 13.0268 23.5355 13.9645C24.4732 14.9021 25 16.1739 25 17.5C25 19.2297 24.1156 20.4109 23.4063 21.3609C22.8438 22.1125 22.5 22.6 22.5 23.125C22.5 23.2908 22.5659 23.4497 22.6831 23.5669C22.8003 23.6842 22.9592 23.75 23.125 23.75ZM28.75 18.75C28.4185 18.75 28.1005 18.6183 27.8661 18.3839C27.6317 18.1495 27.5 17.8315 27.5 17.5C27.5 15.5109 26.7098 13.6032 25.3033 12.1967C23.8968 10.7902 21.9891 10 20 10C18.0109 10 16.1032 10.7902 14.6967 12.1967C13.2902 13.6032 12.5 15.5109 12.5 17.5C12.5 19.3594 13.5484 20.7031 14.6594 22.125C15.7531 23.5188 16.875 24.9609 16.875 26.875C16.8748 27.4905 17.0563 28.0924 17.3969 28.6051C17.7374 29.1178 18.2218 29.5185 18.7892 29.757C19.3566 29.9955 19.9818 30.0611 20.5864 29.9456C21.191 29.8301 21.748 29.5387 22.1875 29.1078C22.3031 28.9857 22.4421 28.8881 22.5962 28.8209C22.7503 28.7538 22.9165 28.7184 23.0846 28.7169C23.2527 28.7154 23.4194 28.7479 23.5747 28.8123C23.73 28.8768 23.8707 28.9719 23.9884 29.092C24.1061 29.2121 24.1983 29.3547 24.2596 29.5113C24.3209 29.6679 24.3499 29.8352 24.345 30.0033C24.3401 30.1713 24.3014 30.3367 24.2311 30.4894C24.1608 30.6422 24.0604 30.7791 23.9359 30.8922C23.1448 31.6671 22.1425 32.1912 21.0547 32.3988C19.9669 32.6065 18.8421 32.4884 17.8211 32.0594C16.8001 31.6305 15.9285 30.9097 15.3155 29.9874C14.7024 29.0651 14.3753 27.9824 14.375 26.875C14.375 25.8219 13.5938 24.8219 12.6891 23.6641C11.4906 22.1297 10 20.2203 10 17.5C10 14.8478 11.0536 12.3043 12.9289 10.4289C14.8043 8.55357 17.3478 7.5 20 7.5C22.6522 7.5 25.1957 8.55357 27.0711 10.4289C28.9464 12.3043 30 14.8478 30 17.5C30 17.8315 29.8683 18.1495 29.6339 18.3839C29.3995 18.6183 29.0815 18.75 28.75 18.75Z" fill="#2F80ED"/>
</svg>
