<svg width="24" height="25" viewBox="0 0 24 25" fill="none" xmlns="http://www.w3.org/2000/svg">
<path d="M21.9647 11.2671L17.7459 14.9074L19.0313 20.3515C19.1022 20.647 19.0839 20.9569 18.9788 21.2421C18.8736 21.5272 18.6864 21.7748 18.4406 21.9536C18.1948 22.1324 17.9015 22.2343 17.5979 22.2465C17.2942 22.2587 16.9937 22.1806 16.7344 22.0221L12 19.1083L7.26282 22.0221C7.00353 22.1797 6.70341 22.257 6.40026 22.2444C6.0971 22.2318 5.80446 22.1297 5.55919 21.9511C5.31392 21.7725 5.12698 21.5253 5.02191 21.2406C4.91685 20.956 4.89835 20.6466 4.96875 20.3515L6.25875 14.9074L2.04 11.2671C1.81059 11.0688 1.64468 10.8074 1.56299 10.5154C1.48129 10.2234 1.48743 9.91376 1.58064 9.62522C1.67385 9.33669 1.85 9.08201 2.08709 8.89299C2.32418 8.70397 2.6117 8.58899 2.91375 8.56241L8.445 8.11616L10.5788 2.95241C10.6942 2.67099 10.8908 2.43027 11.1435 2.26085C11.3961 2.09143 11.6935 2.00098 11.9977 2.00098C12.3019 2.00098 12.5992 2.09143 12.8518 2.26085C13.1045 2.43027 13.3011 2.67099 13.4166 2.95241L15.5494 8.11616L21.0806 8.56241C21.3833 8.588 21.6716 8.70234 21.9096 8.8911C22.1475 9.07986 22.3245 9.33464 22.4183 9.62352C22.5121 9.91241 22.5185 10.2225 22.4368 10.5151C22.3552 10.8076 22.189 11.0695 21.9591 11.268L21.9647 11.2671Z" fill="#2F80ED"/>
</svg>
