<svg width="40" height="40" viewBox="0 0 40 40" fill="none" xmlns="http://www.w3.org/2000/svg">
<path d="M31.875 13.75C31.875 14.1208 31.765 14.4834 31.559 14.7917C31.353 15.1 31.0601 15.3404 30.7175 15.4823C30.3749 15.6242 29.9979 15.6613 29.6342 15.589C29.2705 15.5166 28.9364 15.338 28.6742 15.0758C28.412 14.8136 28.2334 14.4795 28.161 14.1158C28.0887 13.7521 28.1258 13.3751 28.2677 13.0325C28.4096 12.6899 28.65 12.397 28.9583 12.191C29.2666 11.985 29.6292 11.875 30 11.875C30.4973 11.875 30.9742 12.0725 31.3258 12.4242C31.6775 12.7758 31.875 13.2527 31.875 13.75ZM30 24.375C29.6292 24.375 29.2666 24.485 28.9583 24.691C28.65 24.897 28.4096 25.1899 28.2677 25.5325C28.1258 25.8751 28.0887 26.2521 28.161 26.6158C28.2334 26.9795 28.412 27.3136 28.6742 27.5758C28.9364 27.838 29.2705 28.0166 29.6342 28.089C29.9979 28.1613 30.3749 28.1242 30.7175 27.9823C31.0601 27.8404 31.353 27.6 31.559 27.2917C31.765 26.9834 31.875 26.6208 31.875 26.25C31.875 25.7527 31.6775 25.2758 31.3258 24.9242C30.9742 24.5725 30.4973 24.375 30 24.375ZM15 16.25C14.5055 16.25 14.0222 16.3966 13.6111 16.6713C13.2 16.946 12.8795 17.3365 12.6903 17.7933C12.5011 18.2501 12.4516 18.7528 12.548 19.2377C12.6445 19.7227 12.8826 20.1681 13.2322 20.5178C13.5819 20.8674 14.0273 21.1055 14.5123 21.202C14.9972 21.2984 15.4999 21.2489 15.9567 21.0597C16.4135 20.8705 16.804 20.55 17.0787 20.1389C17.3534 19.7278 17.5 19.2445 17.5 18.75C17.5 18.087 17.2366 17.4511 16.7678 16.9822C16.2989 16.5134 15.663 16.25 15 16.25ZM36.25 8.75V31.25C36.25 31.913 35.9866 32.5489 35.5178 33.0178C35.0489 33.4866 34.413 33.75 33.75 33.75H6.25C5.58696 33.75 4.95107 33.4866 4.48223 33.0178C4.01339 32.5489 3.75 31.913 3.75 31.25V8.75C3.75 8.08696 4.01339 7.45107 4.48223 6.98223C4.95107 6.51339 5.58696 6.25 6.25 6.25H33.75C34.413 6.25 35.0489 6.51339 35.5178 6.98223C35.9866 7.45107 36.25 8.08696 36.25 8.75ZM26.25 18.75H33.75V8.75H26.25V18.75ZM21.2109 25.9375C20.8064 24.4272 19.8473 23.1249 18.525 22.2906C19.2272 21.5926 19.7064 20.7017 19.9017 19.731C20.0971 18.7603 19.9998 17.7534 19.6222 16.838C19.2447 15.9227 18.6038 15.14 17.7809 14.5893C16.9581 14.0386 15.9902 13.7446 15 13.7446C14.0098 13.7446 13.0419 14.0386 12.2191 14.5893C11.3962 15.14 10.7553 15.9227 10.3778 16.838C10.0002 17.7534 9.90292 18.7603 10.0983 19.731C10.2936 20.7017 10.7728 21.5926 11.475 22.2906C10.1535 23.1259 9.19469 24.4277 8.78906 25.9375C8.70618 26.2587 8.75428 26.5996 8.92277 26.8853C9.09126 27.171 9.36634 27.3781 9.6875 27.4609C10.0087 27.5438 10.3496 27.4957 10.6353 27.3272C10.921 27.1587 11.1281 26.8837 11.2109 26.5625C11.6234 24.9609 13.2516 23.75 15 23.75C16.7484 23.75 18.3781 24.9578 18.7891 26.5625C18.8719 26.8837 19.079 27.1587 19.3647 27.3272C19.6504 27.4957 19.9913 27.5438 20.3125 27.4609C20.6337 27.3781 20.9087 27.171 21.0772 26.8853C21.2457 26.5996 21.2938 26.2587 21.2109 25.9375ZM33.75 31.25V21.25H26.25V31.25H33.75Z" fill="#2F80ED"/>
</svg>
