<svg width="14" height="18" viewBox="0 0 14 18" fill="none" xmlns="http://www.w3.org/2000/svg">
<mask id="mask0_83_1264" style="mask-type:luminance" maskUnits="userSpaceOnUse" x="0" y="0" width="14" height="18">
<rect x="0.499634" width="13.5" height="18" fill="white"/>
</mask>
<g mask="url(#mask0_83_1264)">
<path fill-rule="evenodd" clip-rule="evenodd" d="M11.7039 9.44646C11.6969 8.15623 12.2805 7.1824 13.4617 6.46521C12.8008 5.51951 11.8024 4.9992 10.484 4.89725C9.23596 4.79881 7.8719 5.62498 7.37268 5.62498C6.84534 5.62498 5.63596 4.9324 4.68674 4.9324C2.72502 4.96404 0.640259 6.49685 0.640259 9.61521C0.640259 10.5363 0.809009 11.4879 1.14651 12.4699C1.59651 13.7601 3.22073 16.9242 4.91526 16.8715C5.8012 16.8504 6.42698 16.2422 7.5801 16.2422C8.69807 16.2422 9.27815 16.8715 10.266 16.8715C11.9746 16.8469 13.4442 13.9711 13.8731 12.6773C11.5809 11.598 11.7039 9.51326 11.7039 9.44647L11.7039 9.44646ZM9.71408 3.67383C10.6738 2.53477 10.5859 1.49766 10.5578 1.125C9.71056 1.17422 8.7297 1.70156 8.17072 2.35195C7.55548 3.04805 7.19337 3.90937 7.27072 4.87969C8.18829 4.95 9.02501 4.47891 9.71408 3.67383Z" fill="#02232C"/>
</g>
</svg>
