<svg width="26" height="27" viewBox="0 0 26 27" fill="none" xmlns="http://www.w3.org/2000/svg">
<g clip-path="url(#clip0_83_4626)">
<path d="M2.78573 4.21418C2.29319 4.21418 1.82082 4.40984 1.47253 4.75813C1.12425 5.10641 0.928589 5.57878 0.928589 6.07132V23.7142C0.928589 24.2067 1.12425 24.6791 1.47253 25.0274C1.82082 25.3757 2.29319 25.5713 2.78573 25.5713H23.2143C23.7068 25.5713 24.1792 25.3757 24.5275 25.0274C24.8758 24.6791 25.0714 24.2067 25.0714 23.7142V6.07132C25.0714 5.57878 24.8758 5.10641 24.5275 4.75813C24.1792 4.40984 23.7068 4.21418 23.2143 4.21418H19.5M6.50002 1.42847V6.9999M19.5 1.42847V6.9999M6.50002 4.21418H15.7857" stroke="#02232C" stroke-width="1.5" stroke-linecap="round" stroke-linejoin="round"/>
<path d="M11.492 8.97217C11.2457 8.97217 11.0096 9.07 10.8354 9.24414C10.6613 9.41828 10.5634 9.65447 10.5634 9.90074V12.5119H7.94859C7.70232 12.5119 7.46613 12.6097 7.29199 12.7839C7.11785 12.958 7.02002 13.1942 7.02002 13.4405V16.4583C7.02002 16.7046 7.11785 16.9408 7.29199 17.1149C7.46613 17.2891 7.70232 17.3869 7.94859 17.3869H10.5616V19.998C10.5616 20.2443 10.6594 20.4805 10.8336 20.6546C11.0077 20.8288 11.2439 20.9266 11.4902 20.9266H14.508C14.63 20.9266 14.7507 20.9026 14.8634 20.8559C14.976 20.8092 15.0784 20.7409 15.1646 20.6546C15.2508 20.5684 15.3192 20.466 15.3659 20.3534C15.4126 20.2407 15.4366 20.12 15.4366 19.998V17.3869H18.0477C18.294 17.3869 18.5302 17.2891 18.7043 17.1149C18.8785 16.9408 18.9763 16.7046 18.9763 16.4583V13.4405C18.9763 13.1942 18.8785 12.958 18.7043 12.7839C18.5302 12.6097 18.294 12.5119 18.0477 12.5119H15.4384V9.90074C15.4384 9.65447 15.3406 9.41828 15.1665 9.24414C14.9923 9.07 14.7561 8.97217 14.5099 8.97217H11.492Z" stroke="#02232C" stroke-width="1.5" stroke-linecap="round" stroke-linejoin="round"/>
</g>
<defs>
<clipPath id="clip0_83_4626">
<rect width="26" height="26" fill="white" transform="translate(0 0.5)"/>
</clipPath>
</defs>
</svg>
