<svg width="24" height="25" viewBox="0 0 24 25" fill="none" xmlns="http://www.w3.org/2000/svg">
<path fill-rule="evenodd" clip-rule="evenodd" d="M3.32308 0.5H3.23077C2.808 0.5 2.44431 0.5 2.12308 0.575686C1.62579 0.694505 1.17111 0.948666 0.80941 1.31001C0.447713 1.67135 0.193122 2.12577 0.0738461 2.62291C-6.87746e-08 2.94412 0 3.30594 0 3.73052V8.34555C0 8.76829 1.37549e-08 9.13195 0.0756923 9.45316C0.19452 9.95041 0.448701 10.4051 0.810073 10.7667C1.17144 11.1284 1.6259 11.383 2.12308 11.5022C2.44431 11.5761 2.80615 11.5761 3.23077 11.5761H7.84615C8.26892 11.5761 8.63262 11.5761 8.95385 11.5004C9.45113 11.3816 9.90582 11.1274 10.2675 10.7661C10.6292 10.4047 10.8838 9.9503 11.0031 9.45316C11.0769 9.13195 11.0769 8.77013 11.0769 8.34555V3.73052C11.0769 3.30778 11.0769 2.94412 11.0012 2.62291C10.8824 2.12566 10.6282 1.67102 10.2669 1.30935C9.90548 0.947678 9.45103 0.693107 8.95385 0.57384C8.63262 0.5 8.27077 0.5 7.84615 0.5H7.75385H3.32308ZM2.55323 2.37186C2.63262 2.3534 2.75631 2.34601 3.32308 2.34601H7.75385C8.32246 2.34601 8.44431 2.35155 8.52369 2.37186C8.68953 2.41151 8.84115 2.49632 8.96172 2.61689C9.08229 2.73745 9.16711 2.88905 9.20677 3.05488C9.22523 3.13241 9.23077 3.25425 9.23077 3.82282V8.25325C9.23077 8.82182 9.22523 8.94366 9.20492 9.02304C9.16527 9.18886 9.08045 9.34047 8.95987 9.46103C8.8393 9.58159 8.68769 9.66641 8.52185 9.70606C8.44615 9.72267 8.32431 9.73006 7.75385 9.73006H3.32308C2.75446 9.73006 2.63262 9.72452 2.55323 9.70422C2.38739 9.66456 2.23578 9.57975 2.1152 9.45918C1.99463 9.33862 1.90981 9.18702 1.87015 9.02119C1.85354 8.9455 1.84615 8.82367 1.84615 8.25325V3.82282C1.84615 3.25425 1.85169 3.13241 1.872 3.05303C1.91166 2.88721 1.99648 2.7356 2.11705 2.61504C2.23762 2.49448 2.38924 2.40967 2.55508 2.37001M16.2462 0.5H16.1538C15.7311 0.5 15.3674 0.5 15.0462 0.575686C14.5489 0.694505 14.0942 0.948666 13.7325 1.31001C13.3708 1.67135 13.1162 2.12577 12.9969 2.62291C12.9231 2.94412 12.9231 3.30594 12.9231 3.73052V8.34555C12.9231 8.76829 12.9231 9.13195 12.9988 9.45316C13.1176 9.95041 13.3718 10.4051 13.7331 10.7667C14.0945 11.1284 14.549 11.383 15.0462 11.5022C15.3674 11.5761 15.7292 11.5761 16.1538 11.5761H20.7692C21.192 11.5761 21.5557 11.5761 21.8769 11.5004C22.3742 11.3816 22.8289 11.1274 23.1906 10.7661C23.5523 10.4047 23.8069 9.9503 23.9262 9.45316C24 9.13195 24 8.77013 24 8.34555V3.73052C24 3.30778 24 2.94412 23.9243 2.62291C23.8055 2.12566 23.5513 1.67102 23.1899 1.30935C22.8286 0.947678 22.3741 0.693107 21.8769 0.57384C21.5557 0.5 21.1938 0.5 20.7692 0.5H20.6769H16.2462ZM15.4763 2.37186C15.5557 2.3534 15.6794 2.34601 16.2462 2.34601H20.6769C21.2455 2.34601 21.3674 2.35155 21.4468 2.37186C21.6126 2.41151 21.7642 2.49632 21.8848 2.61689C22.0054 2.73745 22.0902 2.88905 22.1298 3.05488C22.1483 3.13241 22.1538 3.25425 22.1538 3.82282V8.25325C22.1538 8.82182 22.1465 8.94366 22.128 9.02304C22.0883 9.18886 22.0035 9.34047 21.8829 9.46103C21.7624 9.58159 21.6108 9.66641 21.4449 9.70606C21.3674 9.72452 21.2455 9.73006 20.6769 9.73006H16.2462C15.6775 9.73006 15.5557 9.72452 15.4763 9.70422C15.3105 9.66456 15.1589 9.57975 15.0383 9.45918C14.9177 9.33862 14.8329 9.18702 14.7932 9.02119C14.7766 8.9455 14.7692 8.82367 14.7692 8.25325V3.82282C14.7692 3.25425 14.7748 3.13241 14.7951 3.05303C14.8347 2.88721 14.9196 2.7356 15.0401 2.61504C15.1607 2.49448 15.3123 2.40967 15.4782 2.37001M3.23077 13.4221H7.84615C8.26892 13.4221 8.63262 13.4221 8.95385 13.4978C9.45113 13.6166 9.90582 13.8707 10.2675 14.2321C10.6292 14.5934 10.8838 15.0479 11.0031 15.545C11.0769 15.8662 11.0769 16.228 11.0769 16.6526V21.2676C11.0769 21.6904 11.0769 22.054 11.0012 22.3752C10.8824 22.8725 10.6282 23.3271 10.2669 23.6888C9.90548 24.0505 9.45103 24.305 8.95385 24.4243C8.63262 24.4982 8.27077 24.4982 7.84615 24.4982H3.23077C2.808 24.4982 2.44431 24.4982 2.12308 24.4225C1.62579 24.3036 1.17111 24.0495 0.80941 23.6881C0.447713 23.3268 0.193122 22.8724 0.0738461 22.3752C-6.87746e-08 22.054 0 21.6922 0 21.2676V16.6526C0 16.2299 1.37549e-08 15.8662 0.0756923 15.545C0.19452 15.0477 0.448701 14.5931 0.810073 14.2314C1.17144 13.8698 1.6259 13.6152 2.12308 13.4959C2.44431 13.4221 2.80615 13.4221 3.23077 13.4221ZM3.32308 15.2681C2.75446 15.2681 2.63262 15.2736 2.55323 15.2939C2.38739 15.3336 2.23578 15.4184 2.1152 15.539C1.99463 15.6595 1.90981 15.8111 1.87015 15.977C1.85354 16.0526 1.84615 16.1745 1.84615 16.7449V21.1753C1.84615 21.7439 1.85169 21.8657 1.872 21.9451C1.91166 22.1109 1.99648 22.2625 2.11705 22.3831C2.23762 22.5037 2.38924 22.5885 2.55508 22.6281C2.63262 22.6466 2.75446 22.6521 3.32308 22.6521H7.75385C8.32246 22.6521 8.44431 22.6448 8.52369 22.6263C8.68953 22.5866 8.84115 22.5018 8.96172 22.3813C9.08229 22.2607 9.16711 22.1091 9.20677 21.9433C9.22523 21.8657 9.23077 21.7439 9.23077 21.1753V16.7449C9.23077 16.1763 9.22523 16.0545 9.20492 15.9751C9.16527 15.8093 9.08045 15.6577 8.95987 15.5371C8.8393 15.4166 8.68769 15.3317 8.52185 15.2921C8.44615 15.2755 8.32431 15.2681 7.75385 15.2681H3.32308ZM16.2462 13.4221H16.1538C15.7311 13.4221 15.3674 13.4221 15.0462 13.4978C14.5489 13.6166 14.0942 13.8707 13.7325 14.2321C13.3708 14.5934 13.1162 15.0479 12.9969 15.545C12.9231 15.8662 12.9231 16.228 12.9231 16.6526V21.2676C12.9231 21.6904 12.9231 22.054 12.9988 22.3752C13.1176 22.8725 13.3718 23.3271 13.7331 23.6888C14.0945 24.0505 14.549 24.305 15.0462 24.4243C15.3674 24.5 15.7311 24.5 16.1538 24.5H20.7692C21.192 24.5 21.5557 24.5 21.8769 24.4243C22.3739 24.3052 22.8282 24.0509 23.1895 23.6896C23.5509 23.3283 23.8052 22.874 23.9243 22.3771C24 22.0559 24 21.6922 24 21.2695V16.6526C24 16.2299 24 15.8662 23.9243 15.545C23.8055 15.0477 23.5513 14.5931 23.1899 14.2314C22.8286 13.8698 22.3741 13.6152 21.8769 13.4959C21.5557 13.4221 21.1938 13.4221 20.7692 13.4221H20.6769H16.2462ZM15.4763 15.2939C15.5557 15.2755 15.6794 15.2681 16.2462 15.2681H20.6769C21.2455 15.2681 21.3674 15.2736 21.4468 15.2939C21.6126 15.3336 21.7642 15.4184 21.8848 15.539C22.0054 15.6595 22.0902 15.8111 22.1298 15.977C22.1483 16.0545 22.1538 16.1763 22.1538 16.7449V21.1753C22.1538 21.7439 22.1465 21.8657 22.128 21.9451C22.0883 22.1109 22.0035 22.2625 21.8829 22.3831C21.7624 22.5037 21.6108 22.5885 21.4449 22.6281C21.3674 22.6466 21.2455 22.6521 20.6769 22.6521H16.2462C15.6775 22.6521 15.5557 22.6448 15.4763 22.6263C15.3105 22.5866 15.1589 22.5018 15.0383 22.3813C14.9177 22.2607 14.8329 22.1091 14.7932 21.9433C14.7766 21.8676 14.7692 21.7457 14.7692 21.1753V16.7449C14.7692 16.1763 14.7748 16.0545 14.7951 15.9751C14.8347 15.8093 14.9196 15.6577 15.0401 15.5371C15.1607 15.4166 15.3123 15.3317 15.4782 15.2921" fill="#02232C"/>
</svg>
