<svg width="19" height="18" viewBox="0 0 19 18" fill="none" xmlns="http://www.w3.org/2000/svg">
<mask id="mask0_83_1256" style="mask-type:luminance" maskUnits="userSpaceOnUse" x="0" y="0" width="19" height="18">
<rect x="0.499634" width="18" height="18" fill="white"/>
</mask>
<g mask="url(#mask0_83_1256)">
<path fill-rule="evenodd" clip-rule="evenodd" d="M9.49963 1.875C5.56461 1.875 2.37464 5.06496 2.37463 8.99998C2.37462 12.935 5.56458 16.125 9.4996 16.125C13.4346 16.125 16.6246 12.9351 16.6246 9.00003C16.6246 5.06501 13.4347 1.87503 9.49967 1.875H9.49963Z" fill="#039BE5"/>
<path fill-rule="evenodd" clip-rule="evenodd" d="M10.4641 10.8884H12.308L12.5975 9.01529H10.4638V7.99154C10.4638 7.21342 10.718 6.52342 11.4459 6.52342H12.6155V4.88879C12.41 4.86104 11.9754 4.80029 11.1541 4.80029C9.43927 4.80029 8.4339 5.70592 8.4339 7.76917V9.01529H6.67102V10.8884H8.4339V16.0368C8.78302 16.0893 9.13664 16.1249 9.49964 16.1249C9.82777 16.1249 10.148 16.0949 10.4641 16.0522V10.8884Z" fill="white"/>
</g>
</svg>
