<svg width="19" height="18" viewBox="0 0 19 18" fill="none" xmlns="http://www.w3.org/2000/svg">
<mask id="mask0_83_1248" style="mask-type:luminance" maskUnits="userSpaceOnUse" x="0" y="0" width="19" height="18">
<rect x="0.499634" width="18" height="18" fill="white"/>
</mask>
<g mask="url(#mask0_83_1248)">
<path fill-rule="evenodd" clip-rule="evenodd" d="M16.8538 7.53113H16.2496V7.5H9.49963V10.5H13.7383C13.1199 12.2464 11.4583 13.5 9.49963 13.5C7.01451 13.5 4.99963 11.4851 4.99963 9C4.99963 6.51488 7.01451 4.5 9.49963 4.5C10.6468 4.5 11.6904 4.93275 12.485 5.63963L14.6064 3.51825C13.2669 2.26987 11.4751 1.5 9.49963 1.5C5.35776 1.5 1.99963 4.85813 1.99963 9C1.99963 13.1419 5.35776 16.5 9.49963 16.5C13.6415 16.5 16.9996 13.1419 16.9996 9C16.9996 8.49713 16.9479 8.00625 16.8538 7.53113Z" fill="#FFC107"/>
<path fill-rule="evenodd" clip-rule="evenodd" d="M2.86438 5.50912L5.32851 7.31625C5.99525 5.6655 7.61001 4.5 9.49963 4.5C10.6468 4.5 11.6904 4.93275 12.485 5.63962L14.6064 3.51825C13.2669 2.26987 11.4751 1.5 9.49963 1.5C6.61888 1.5 4.12063 3.12637 2.86438 5.50912Z" fill="#FF3D00"/>
<path fill-rule="evenodd" clip-rule="evenodd" d="M9.49963 16.5C11.4369 16.5 13.1971 15.7586 14.528 14.553L12.2068 12.5888C11.4538 13.1591 10.5178 13.5 9.49963 13.5C7.54888 13.5 5.8925 12.2561 5.2685 10.5203L2.82275 12.4046C4.064 14.8335 6.58475 16.5 9.49963 16.5Z" fill="#4CAF50"/>
<path fill-rule="evenodd" clip-rule="evenodd" d="M16.8538 7.53113H16.2496V7.5H9.49963V10.5H13.7383C13.4413 11.3389 12.9016 12.0623 12.2056 12.5891C12.206 12.5888 12.2064 12.5887 12.2068 12.5884L14.528 14.5526C14.3638 14.7019 16.9996 12.75 16.9996 9C16.9996 8.49713 16.9479 8.00625 16.8538 7.53113Z" fill="#1976D2"/>
</g>
</svg>
