<svg width="27" height="27" viewBox="0 0 27 27" fill="none" xmlns="http://www.w3.org/2000/svg">
<path fill-rule="evenodd" clip-rule="evenodd" d="M13.5 2.25C10.3934 2.25 7.875 4.7684 7.875 7.875C7.875 10.9816 10.3934 13.5 13.5 13.5C16.6066 13.5 19.125 10.9816 19.125 7.875C19.125 4.7684 16.6066 2.25 13.5 2.25ZM10.125 7.875C10.125 6.01104 11.636 4.5 13.5 4.5C15.364 4.5 16.875 6.01104 16.875 7.875C16.875 9.73896 15.364 11.25 13.5 11.25C11.636 11.25 10.125 9.73896 10.125 7.875Z" fill="#02232C"/>
<path d="M9 15.75C7.50816 15.75 6.07742 16.3426 5.02252 17.3975C3.96763 18.4524 3.375 19.8832 3.375 21.375V23.625C3.375 24.2463 3.87868 24.75 4.5 24.75C5.12132 24.75 5.625 24.2463 5.625 23.625V21.375C5.625 20.4799 5.98058 19.6215 6.61351 18.9885C7.24645 18.3556 8.10489 18 9 18H18C18.8951 18 19.7535 18.3556 20.3865 18.9885C21.0194 19.6215 21.375 20.4799 21.375 21.375V23.625C21.375 24.2463 21.8787 24.75 22.5 24.75C23.1213 24.75 23.625 24.2463 23.625 23.625V21.375C23.625 19.8832 23.0324 18.4524 21.9775 17.3975C20.9226 16.3426 19.4918 15.75 18 15.75H9Z" fill="#02232C"/>
</svg>
